<?xml version="1.0" standalone="no"?>
<!DOCTYPE svg PUBLIC "-//W3C//DTD SVG 20010904//EN"
 "http://www.w3.org/TR/2001/REC-SVG-20010904/DTD/svg10.dtd">
<svg version="1.0" xmlns="http://www.w3.org/2000/svg"
 width="700.000000pt" height="700.000000pt" viewBox="0 0 700.000000 700.000000"
 preserveAspectRatio="xMidYMid meet">
<metadata>
Created by potrace 1.11, written by Peter Selinger 2001-2013
</metadata>
<g transform="translate(0.000000,700.000000) scale(0.100000,-0.100000)"
fill="#000000" stroke="none">
<path d="M1630 6553 c-96 -10 -267 -49 -373 -84 -295 -99 -551 -269 -764 -509
-250 -281 -402 -605 -469 -995 -24 -140 -25 -472 -1 -610 63 -365 207 -683
427 -946 56 -67 2165 -2251 2608 -2700 174 -177 200 -200 265 -230 68 -32 79
-34 178 -34 102 0 108 1 183 38 77 38 84 46 1431 1436 744 768 1384 1433 1422
1477 309 358 481 862 460 1344 -23 498 -219 951 -562 1295 -258 259 -565 425
-920 495 -155 31 -427 38 -589 16 -342 -48 -654 -179 -941 -395 -33 -24 -156
-139 -272 -255 l-213 -210 -212 210 c-117 116 -240 231 -273 255 -285 214
-598 346 -935 394 -95 13 -356 18 -450 8z"/>
</g>
</svg>
